<mxfile host="app.diagrams.net" modified="2024-05-08T16:45:17.898Z" agent="Mozilla/5.0 (Macintosh; Intel Mac OS X 10_15_7) AppleWebKit/605.1.15 (KHTML, like Gecko) Version/17.4.1 Safari/605.1.15" etag="pHoVs-PCQbOxiJQ6yqoW" version="24.3.1" type="github">
  <diagram name="第 1 页" id="xqKIsfR9Eklun5eR2lfy">
    <mxGraphModel dx="1089" dy="260" grid="1" gridSize="10" guides="1" tooltips="1" connect="1" arrows="1" fold="1" page="0" pageScale="1" pageWidth="827" pageHeight="1169" math="0" shadow="0">
      <root>
        <mxCell id="0" />
        <mxCell id="1" parent="0" />
        <mxCell id="y0C8CfdULQ60MGIFnEcW-8" value="" style="group" vertex="1" connectable="0" parent="1">
          <mxGeometry x="-460" y="70" width="60" height="90" as="geometry" />
        </mxCell>
        <mxCell id="y0C8CfdULQ60MGIFnEcW-1" value="" style="rounded=0;whiteSpace=wrap;html=1;" vertex="1" parent="y0C8CfdULQ60MGIFnEcW-8">
          <mxGeometry width="60" height="80" as="geometry" />
        </mxCell>
        <mxCell id="y0C8CfdULQ60MGIFnEcW-2" value="D" style="text;html=1;align=center;verticalAlign=middle;whiteSpace=wrap;rounded=0;connectable=0;" vertex="1" parent="y0C8CfdULQ60MGIFnEcW-8">
          <mxGeometry y="10" width="20" height="20" as="geometry" />
        </mxCell>
        <mxCell id="y0C8CfdULQ60MGIFnEcW-3" value="Q" style="text;html=1;align=center;verticalAlign=middle;whiteSpace=wrap;rounded=0;connectable=0;" vertex="1" parent="y0C8CfdULQ60MGIFnEcW-8">
          <mxGeometry x="40" y="10" width="20" height="20" as="geometry" />
        </mxCell>
        <mxCell id="y0C8CfdULQ60MGIFnEcW-4" value="" style="triangle;whiteSpace=wrap;html=1;" vertex="1" parent="y0C8CfdULQ60MGIFnEcW-8">
          <mxGeometry y="40" width="10" height="10" as="geometry" />
        </mxCell>
        <mxCell id="y0C8CfdULQ60MGIFnEcW-5" value="" style="verticalLabelPosition=bottom;shadow=0;dashed=0;align=center;html=1;verticalAlign=top;shape=mxgraph.electrical.logic_gates.inverting_contact;" vertex="1" parent="y0C8CfdULQ60MGIFnEcW-8">
          <mxGeometry x="25" y="80" width="10" height="10" as="geometry" />
        </mxCell>
        <mxCell id="y0C8CfdULQ60MGIFnEcW-6" value="RDN" style="text;html=1;align=center;verticalAlign=middle;whiteSpace=wrap;rounded=0;connectable=0;" vertex="1" parent="y0C8CfdULQ60MGIFnEcW-8">
          <mxGeometry x="15" y="60" width="30" height="20" as="geometry" />
        </mxCell>
        <mxCell id="y0C8CfdULQ60MGIFnEcW-7" value="CK" style="text;html=1;align=center;verticalAlign=middle;whiteSpace=wrap;rounded=0;connectable=0;" vertex="1" parent="y0C8CfdULQ60MGIFnEcW-8">
          <mxGeometry x="10" y="35" width="20" height="20" as="geometry" />
        </mxCell>
      </root>
    </mxGraphModel>
  </diagram>
</mxfile>
